PathFileType	4	(x/y/z)	S01_PSF_T11.trc
DataRate	CameraRate	NumFrames	NumMarkers	Units	OrigDataRate	OrigDataStartFrame	OrigNumFrames
240	240	7	51	mm	240	110	436
Frame#	Time	Sternum			R.Acromium			L.Acromium			Top.Head			R.ASIS			L.ASIS			R.PSIS			L.PSIS			R.Great.Tro			L.Great.Tro			R.Iliac.Crest			L.Iliac.Crest			V.Sacral			R.Thigh.Upper.Post			R.Thigh.Lower.Ant			R.Thigh.Lower.Post			R.Thigh.Upper.Ant			R.Knee.Lat			R.Knee.Med			R.Shank.Upper.Post			R.Shank.Lower.Ant			R.Shank.Lower.Post			R.Shank.Upper.Ant			R.Ankle.Lat			R.Ankle.Med			R.Heel.Upper			R.Heel.Med			R.Heel.Lat			R.Toe.Lat			R.Toe.Med			R.Toe.Tip			L.Thigh.Upper.Post			L.Thigh.Lower.Ant			L.Thigh.Lower.Post			L.Thigh.Upper.Ant			L.Knee.Lat			L.Knee.Med			L.Shank.Upper.Post			L.Shank.Lower.Ant			L.Shank.Lower.Post			L.Shank.Upper.Ant			L.Ankle.Lat			L.Ankle.Med			L.Heel.Upper			L.Heel.Med			L.Heel.Lat			L.Toe.Lat			L.Toe.Med			L.Toe.Tip			Cervical.Spine			Back			
		X1	Y1	Z1	X2	Y2	Z2	X3	Y3	Z3	X4	Y4	Z4	X5	Y5	Z5	X6	Y6	Z6	X7	Y7	Z7	X8	Y8	Z8	X9	Y9	Z9	X10	Y10	Z10	X11	Y11	Z11	X12	Y12	Z12	X13	Y13	Z13	X14	Y14	Z14	X15	Y15	Z15	X16	Y16	Z16	X17	Y17	Z17	X18	Y18	Z18	X19	Y19	Z19	X20	Y20	Z20	X21	Y21	Z21	X22	Y22	Z22	X23	Y23	Z23	X24	Y24	Z24	X25	Y25	Z25	X26	Y26	Z26	X27	Y27	Z27	X28	Y28	Z28	X29	Y29	Z29	X30	Y30	Z30	X31	Y31	Z31	X32	Y32	Z32	X33	Y33	Z33	X34	Y34	Z34	X35	Y35	Z35	X36	Y36	Z36	X37	Y37	Z37	X38	Y38	Z38	X39	Y39	Z39	X40	Y40	Z40	X41	Y41	Z41	X42	Y42	Z42	X43	Y43	Z43	X44	Y44	Z44	X45	Y45	Z45	X46	Y46	Z46	X47	Y47	Z47	X48	Y48	Z48	X49	Y49	Z49	X50	Y50	Z50	X51	Y51	Z51	

110	0.45417	-760.19	1235.8	291.16	-865.36	1493.2	464.99	-866.57	1514.3	136.3	-766.42	1804.6	300.46	-824.66	996.67	439.16	-814.84	996.04	169.92	-1059.3	1036.5	342.07	-1061	1047	240.19	-902.91	944.02	520.61	-933.03	958.69	89.952	-917.9	1091.2	501.51	-920.14	1080.6	94.11	-1075.5	1007.6	285.62	-783.53	656.16	498.14	-690.25	624.08	465.36	-742.92	579.46	472.19	-729.01	703.49	487.29	-693.77	539.72	466.97	-693.85	537.75	316.47	-684.63	374.18	485.88	-594.64	322.33	447.09	-660.76	308.01	474.75	-623.23	388.34	463.55	-570.61	118.87	440.37	-541.89	142.24	349.77	-616.22	58.673	377.61	-585.84	42.467	349.27	-592.67	36.867	413.76	-422	114.23	479.66	-393.57	139.11	358.93	-351.54	187.26	416.46	-1049.2	706.75	118.46	-988.84	613.81	116.87	-1066.7	618.43	133.81	-979.66	707.17	97.616	-1051.6	522.24	120.96	-1024.1	513.8	265.48	-1152.2	401.39	110.32	-1118.5	297.93	133.55	-1174.9	326.32	115.52	-1095.4	371.13	123.55	-1249.6	121.1	160.32	-1219.3	128.01	257.11	-1324.9	96.789	208.58	-1314.9	70.241	241.07	-1319.6	70.955	178.93	-1111.7	39.04	138.15	-1083.3	44.089	259.02	-1020.8	48.907	206.72	-942.32	1569.3	302.35	-1063.5	1264.9	306.69
111	0.45833	-754.26	1234.5	291.79	-859.45	1491.6	466.11	-860.65	1513.3	137.43	-760.49	1803.4	301.94	-818.44	995.53	439.27	-809	994.9	169.97	-1053.3	1035.2	342.66	-1055.2	1045.7	240.8	-896.45	942.91	520.83	-927.42	957.63	90.255	-911.84	1089.8	501.99	-914.82	1079.4	94.431	-1069.5	1006.3	286.23	-776.4	655.57	497.95	-683.17	623.66	464.89	-735.72	578.95	471.99	-721.96	703.01	486.94	-686.77	538.91	466.65	-687.07	537.18	316.42	-678.2	373.26	485.4	-588.47	321.13	446.44	-654.58	307.02	474.19	-616.77	387.22	463.01	-565.29	117.86	439.61	-536.65	140.94	348.93	-611.31	58.193	376.89	-581.16	41.697	348.53	-587.89	36.272	413.04	-416.66	112.53	478.73	-388.42	137.08	357.77	-346.02	184.97	415.22	-1043.9	706.02	118.9	-983.68	612.96	117.04	-1061.5	617.72	134.21	-974.34	706.33	97.917	-1046.7	521.53	121.21	-1019	512.87	265.59	-1148.4	401.6	110.42	-1115.7	297.81	133.6	-1171.8	326.77	115.54	-1091.9	370.79	123.66	-1248.8	122.21	160.16	-1218.4	128.95	256.93	-1324.5	98.562	208.37	-1314.5	71.949	240.9	-1319.1	72.536	178.76	-1111.7	39.046	138.17	-1083.1	44.071	259.05	-1020.6	48.662	206.76	-936.43	1568.1	303.59	-1057.6	1263.6	307.36
112	0.4625	-748.3	1233.3	292.42	-853.52	1490.1	467.25	-854.73	1512.3	138.59	-754.56	1802.2	303.46	-812.15	994.46	439.37	-803.11	993.79	170.04	-1047.2	1033.9	343.29	-1049.2	1044.5	241.44	-889.88	941.86	521.07	-921.73	956.59	90.586	-905.71	1088.4	502.5	-909.47	1078.2	94.772	-1063.4	1005	286.88	-769.22	655.03	497.73	-676.05	623.27	464.42	-728.48	578.48	471.76	-714.86	702.56	486.6	-679.74	538.1	466.33	-680.22	536.67	316.39	-671.89	372.34	484.91	-582.49	319.83	445.77	-648.6	306.02	473.61	-610.44	386.03	462.45	-560.42	116.79	438.86	-531.8	139.5	348.08	-606.91	57.766	376.16	-577.04	40.908	347.8	-583.68	35.701	412.33	-411.81	110.52	477.82	-383.7	134.69	356.64	-340.86	182.22	413.99	-1038.4	705.28	119.35	-978.4	612.12	117.22	-1056.2	616.99	134.62	-968.92	705.5	98.234	-1041.7	520.81	121.47	-1013.6	511.94	265.71	-1144.4	401.85	110.53	-1112.9	297.71	133.65	-1168.6	327.27	115.56	-1088.2	370.46	123.78	-1247.9	123.39	159.99	-1217.4	129.97	256.74	-1324	100.46	208.14	-1314	73.789	240.72	-1318.7	74.242	178.58	-1111.6	39.056	138.19	-1083	44.059	259.08	-1020.5	48.417	206.79	-930.54	1566.9	304.87	-1051.7	1262.4	308.06
113	0.46667	-742.31	1232.2	293.06	-847.57	1488.5	468.43	-848.81	1511.4	139.78	-748.61	1801.1	305	-805.79	993.44	439.48	-797.17	992.72	170.13	-1041.1	1032.6	343.96	-1043.2	1043.2	242.11	-883.2	940.87	521.32	-915.98	955.54	90.941	-899.5	1087.1	503.03	-904.09	1077	95.137	-1057.3	1003.8	287.57	-762.02	654.52	497.48	-668.9	622.89	463.96	-721.23	578.04	471.51	-707.72	702.13	486.27	-672.7	537.31	465.99	-673.32	536.21	316.37	-665.69	371.43	484.4	-576.68	318.46	445.08	-642.79	305	473.02	-604.21	384.78	461.87	-555.95	115.67	438.11	-527.3	137.93	347.24	-603	57.409	375.44	-573.44	40.119	347.09	-580.01	35.172	411.63	-407.42	108.22	476.92	-379.36	131.94	355.55	-336.03	179.06	412.8	-1032.9	704.53	119.81	-973	611.29	117.41	-1050.8	616.26	135.04	-963.4	704.68	98.565	-1036.5	520.08	121.73	-1008.1	511	265.84	-1140.3	402.13	110.64	-1109.9	297.66	133.7	-1165.3	327.82	115.59	-1084.5	370.17	123.88	-1246.9	124.66	159.81	-1216.4	131.07	256.53	-1323.3	102.48	207.9	-1313.5	75.766	240.53	-1318.1	76.081	178.4	-1111.5	39.069	138.21	-1082.8	44.053	259.12	-1020.3	48.171	206.82	-924.64	1565.7	306.18	-1045.8	1261.2	308.78
114	0.47083	-736.28	1231.1	293.71	-841.59	1487.1	469.62	-842.91	1510.5	140.99	-742.66	1800	306.58	-799.36	992.48	439.58	-791.18	991.68	170.23	-1034.9	1031.4	344.65	-1037.2	1042	242.81	-876.42	939.95	521.58	-910.17	954.51	91.319	-893.21	1085.8	503.58	-898.65	1075.9	95.526	-1051.1	1002.5	288.3	-754.81	654.04	497.19	-661.74	622.52	463.51	-713.98	577.61	471.23	-700.56	701.71	485.95	-665.65	536.53	465.65	-666.39	535.8	316.36	-659.61	370.53	483.88	-571.03	317.02	444.39	-637.15	303.98	472.43	-598.08	383.49	461.28	-551.84	114.51	437.4	-523.12	136.25	346.41	-599.52	57.136	374.74	-570.31	39.35	346.41	-576.83	34.702	410.96	-403.45	105.65	476.04	-375.38	128.87	354.5	-331.49	175.49	411.65	-1027.2	703.77	120.29	-967.47	610.46	117.6	-1045.2	615.5	135.48	-957.77	703.88	98.909	-1031.1	519.35	122.01	-1002.5	510.06	265.97	-1136.1	402.45	110.77	-1106.9	297.65	133.74	-1161.9	328.42	115.62	-1080.6	369.9	123.99	-1245.9	126.02	159.62	-1215.3	132.24	256.32	-1322.6	104.64	207.65	-1313	77.887	240.34	-1317.5	78.061	178.21	-1111.4	39.089	138.22	-1082.7	44.054	259.15	-1020.1	47.923	206.84	-918.73	1564.6	307.53	-1039.8	1260	309.53
115	0.475	-730.22	1230	294.36	-835.6	1485.6	470.85	-837.01	1509.7	142.23	-736.7	1799	308.19	-792.86	991.59	439.69	-785.14	990.68	170.36	-1028.6	1030.2	345.38	-1031.1	1040.8	243.54	-869.52	939.08	521.85	-904.3	953.5	91.719	-886.84	1084.6	504.15	-893.15	1074.8	95.937	-1044.9	1001.3	289.08	-747.61	653.59	496.88	-654.58	622.15	463.08	-706.75	577.21	470.95	-693.39	701.3	485.65	-658.6	535.77	465.3	-659.44	535.42	316.36	-653.62	369.64	483.37	-565.52	315.53	443.7	-631.66	302.95	471.85	-592.05	382.18	460.69	-548.05	113.34	436.71	-519.23	134.48	345.61	-596.44	56.964	374.06	-567.61	38.622	345.76	-574.09	34.304	410.33	-399.86	102.83	475.19	-371.71	125.51	353.5	-327.21	171.56	410.53	-1021.5	703.01	120.78	-961.82	609.64	117.81	-1039.5	614.74	135.92	-952.04	703.08	99.264	-1025.7	518.61	122.29	-996.66	509.12	266.1	-1131.8	402.81	110.9	-1103.7	297.68	133.77	-1158.3	329.08	115.66	-1076.6	369.66	124.08	-1244.8	127.47	159.43	-1214.1	133.5	256.09	-1321.8	106.94	207.42	-1312.3	80.16	240.15	-1316.9	80.19	178.03	-1111.3	39.115	138.23	-1082.5	44.061	259.19	-1020	47.671	206.86	-912.81	1563.6	308.91	-1033.8	1258.9	310.31
116	0.47917	-724.12	1229.1	295.03	-829.58	1484.2	472.1	-831.13	1509	143.49	-730.73	1798	309.83	-786.29	990.77	439.81	-779.05	989.73	170.51	-1022.3	1029.1	346.14	-1024.9	1039.6	244.3	-862.5	938.27	522.12	-898.37	952.5	92.14	-880.38	1083.4	504.76	-887.58	1073.8	96.372	-1038.6	1000.2	289.88	-740.43	653.16	496.56	-647.44	621.78	462.67	-699.55	576.81	470.65	-686.23	700.9	485.37	-651.57	535.03	464.97	-652.49	535.07	316.37	-647.72	368.79	482.86	-560.13	314.02	443.03	-626.29	301.95	471.29	-586.1	380.85	460.11	-544.54	112.17	436.07	-515.58	132.65	344.85	-593.71	56.902	373.43	-565.3	37.953	345.16	-571.74	33.993	409.75	-396.62	99.805	474.37	-368.34	121.9	352.55	-323.16	167.29	409.47	-1015.6	702.23	121.28	-956.04	608.83	118.01	-1033.7	613.95	136.38	-946.22	702.3	99.627	-1020.1	517.87	122.57	-990.69	508.17	266.23	-1127.3	403.22	111.04	-1100.5	297.76	133.8	-1154.7	329.8	115.71	-1072.5	369.45	124.16	-1243.6	129.03	159.23	-1212.7	134.84	255.87	-1320.9	109.39	207.19	-1311.6	82.59	239.98	-1316.1	82.476	177.87	-1111.2	39.151	138.23	-1082.4	44.076	259.23	-1019.8	47.415	206.88	-906.88	1562.6	310.33	-1027.7	1257.9	311.13
